# xmcd
#
# Track frame offsets:
# 150
# 14802
# 31730
# 40627
# 53612
# 75310
# 93570
# 122960
# 147335
# 171782
# 191115
# 207915
# 239530
# 262705
#
# Disc length: 3747 seconds
#
#
# Revision: 1
# Processed by: cddbd v1.5.1PL0 Copyright (c) Steve Scherf et al.
# Submitted via: FreeRIP 2.70 
#
DISCID=b80ea10e
DTITLE=최덕신 - 주찬양11 - 전신갑주를 취하라
DYEAR=1994
DGENRE=CCM
TTITLE0=전신갑주 취하라
TTITLE1=주의 군대 일으켜 주소서
TTITLE2=하나님 말씀으로
TTITLE3=루시퍼의 솔로
TTITLE4=Spot News
TTITLE5=하나님의 마음
TTITLE6=난 그분을 보았소
TTITLE7=죽임 당하신 어린양
TTITLE8=승리찬양 Medley
TTITLE9=선포해
TTITLE10=감사하세
TTITLE11=광야를 지날때
TTITLE12=기뻐하라
TTITLE13=우리 승리하리라
EXTD=
EXTT0=
EXTT1=
EXTT2=
EXTT3=
EXTT4=
EXTT5=
EXTT6=
EXTT7=
EXTT8=
EXTT9=
EXTT10=
EXTT11=
EXTT12=
EXTT13=
PLAYORDER=
